<svg xmlns="http://www.w3.org/2000/svg" width="100" height="100" viewBox="0 0 100 100"><path fill="#324D5B" d="M50 0c27.614 0 50 22.386 50 50s-22.386 50-50 50-50-22.386-50-50 22.386-50 50-50z"/><path fill="#227F9E" d="M8 65v21l28-30v-7.982l-13.12-.023-14.88 17.005zm68.91-17.246l-12.91-.004v8.25l28 30v-21l-15.09-17.246z"/><path fill="#816B32" d="M63 31h-18.969l-1-1h-8.031c-.597 0-1 .468-1 .906v18.094c0 1.104.896 2 2 2h27c1.104 0 2-.896 2-2v-16c0-1.104-.896-2-2-2z"/><path fill="#8F7738" d="M34 33h31c1.104 0 2 .896 2 2v16c0 1.104-.896 2-2 2h-31c-1.104 0-2-.896-2-2v-16c0-1.104.896-2 2-2z"/><path fill="#B09246" d="M70.031 36h-10c-.276 0-2.031 1.725-2.031 2h-29c-1.104 0-2 .896-2 2v16c0 1.104.896 2 2 2h41c1.104 0 2-.896 2-2v-18.031c0-1.065-.988-1.969-1.969-1.969z"/><path fill="#BF9F4B" d="M27 41h45c1.104 0 2 .896 2 2v16c0 1.104-.896 2-2 2h-45c-1.104 0-2-.896-2-2v-16c0-1.104.896-2 2-2z"/><path fill="#DCB757" d="M23 46h54c1.104 0 2 .896 2 2v16c0 1.104-.896 2-2 2h-54c-1.104 0-2-.896-2-2v-16c0-1.104.896-2 2-2z"/><path fill="#E4E7E7" d="M30.562 39.939l40.568 10.871c1.067.285 1.701 1.382 1.415 2.449l-4.659 17.387c-.285 1.067-1.383 1.7-2.449 1.414l-40.569-10.87c-1.066-.286-1.7-1.383-1.414-2.45l4.659-17.387c.286-1.066 1.383-1.699 2.449-1.414z"/><path fill="#EFC75E" d="M20 50h60c1.104 0 2 .896 2 2v16c0 1.104-.896 2-2 2h-60c-1.104 0-2-.896-2-2v-16c0-1.104.896-2 2-2z"/><path fill="#2EA9D3" d="M11 62h78c1.657 0 3 1.344 3 3v30c0 1.657-1.343 3-3 3h-78c-1.657 0-3-1.343-3-3v-30c0-1.656 1.343-3 3-3z"/><path fill="#4DC6EF" d="M31 76c-2.209 0-4 1.791-4 4s1.791 4 4 4 4-1.791 4-4-1.791-4-4-4zm38 0c-2.209 0-4 1.791-4 4s1.791 4 4 4 4-1.791 4-4-1.791-4-4-4z"/><path fill="#E4E7E7" d="M69 79c-1.104 0-2 .896-2 2v1c0 1.657-1.343 3-3 3h-28c-1.657 0-3-1.343-3-3v-1c0-1.104-.896-2-2-2s-2 .896-2 2v3c0 2.762 2.238 5 5 5h32c2.762 0 5-2.238 5-5v-3c0-1.104-.896-2-2-2z"/><path fill="#207693" d="M52 72c0-1.104-.896-2-2-2s-2 .896-2 2c0 .711.374 1.331.933 1.687l-.933 4.313h4l-.933-4.313c.559-.356.933-.976.933-1.687z"/><path fill="#D8DBDB" d="M25.796 50h42.31l-7.463-2h-34.311z"/><path fill="#58BADC" d="M89 62h-78c-1.657 0-3 1.344-3 3v2c0-1.656 1.343-3 3-3h78c1.657 0 3 1.344 3 3v-2c0-1.656-1.343-3-3-3z"/><path fill="#2998BE" d="M66 89h-32c-2.762 0-5-2.238-5-5v1c0 2.762 2.238 5 5 5h32c2.762 0 5-2.238 5-5v-1c0 2.762-2.238 5-5 5z"/><path fill="#249CC5" d="M89 98h-78c-1.657 0-3-1.343-3-3v2c0 1.657 1.343 3 3 3h78c1.657 0 3-1.343 3-3v-2c0 1.657-1.343 3-3 3z"/></svg>