<svg xmlns="http://www.w3.org/2000/svg" width="100" height="100" viewBox="0 0 100 100"><path fill="#EFEFEF" d="M50 0c-27.614 0-50 22.386-50 50s22.386 50 50 50 50-22.386 50-50-22.386-50-50-50z"/><path fill="#324D5B" d="M50 18.001c-15.464 0-28 12.535-28 27.999v10h3v-9.666c0-13.991 11.193-25.334 25-25.334 13.808 0 25 11.343 25 25.334v9.666h3v-10c0-15.464-12.536-27.999-28-27.999z"/><path fill="#E2574C" d="M29 52c-6.075 0-11 4.925-11 11s4.925 11 11 11c3.657 0 3-11 3-11s.698-11-3-11zm42.604 0c-3.375 0-2.836 11-2.836 11s-.672 11 2.836 11c5.742 0 10.396-4.925 10.396-11s-4.654-11-10.396-11z"/><path fill="#BFC3C5" d="M34 48c-3.313 0-6 2.687-6 6v18c0 3.313 2.687 6 6 6 3.314 0 6-2.687 6-6v-18c0-3.313-2.686-6-6-6zm32 0c-3.313 0-6 2.687-6 6v18c0 3.313 2.687 6 6 6s6-2.687 6-6v-18c0-3.313-2.687-6-6-6z"/><path d="M40 72v-18c0-3.313-2.686-6-6-6v30c3.314 0 6-2.687 6-6zm20-18v18c0 3.313 2.687 6 6 6v-30c-3.313 0-6 2.687-6 6z" fill="#CFD2D4"/><path d="M72 73.979c1.427-.057 2.777-.415 4-1.021v-19.915c-1.223-.606-2.573-.965-4-1.021v21.957zm-48-1.19c1.22.625 2.569 1.031 4 1.16v-21.898c-1.431.129-2.78.535-4 1.16v19.578z" fill="#C04A41"/></svg>