<?xml version="1.0" encoding="utf-8"?>
<!-- Generator: Adobe Illustrator 16.2.1, SVG Export Plug-In . SVG Version: 6.00 Build 0)  -->
<!DOCTYPE svg PUBLIC "-//W3C//DTD SVG 1.1//EN" "http://www.w3.org/Graphics/SVG/1.1/DTD/svg11.dtd">
<svg version="1.1" id="Слой_1" xmlns="http://www.w3.org/2000/svg" xmlns:xlink="http://www.w3.org/1999/xlink" x="0px" y="0px"
	 width="100px" height="100px" viewBox="0 0 100 100" enable-background="new 0 0 100 100" xml:space="preserve">
<path fill="#EDEDED" d="M50,0C22.386,0,0,22.387,0,50c0,27.615,22.386,50,50,50c27.613,0,50-22.385,50-50C100,22.387,77.613,0,50,0z
	"/>
<path fill="#D07C40" d="M19.004,29.985h62.021v49.976H19.066L19.004,29.985z"/>
<g>
	<path fill="#EFC75E" d="M84.003,42.015c0,0.025-67.944-0.02-68.008,0c0,0,0,22.188,0,37.919c0.001,0.004-0.007,2.999-0.018,6.693
		C24.902,94.92,36.855,100,50,100c13.122,0,25.057-5.061,33.977-13.328c-0.031-3.709-0.057-6.723-0.055-6.724
		C83.922,64.22,84.003,42.015,84.003,42.015z"/>
	<polygon fill="#EFC75E" points="75.021,34.009 75.021,40.53 81.025,39.36 81.025,29.985 	"/>
	<polygon fill="#EFC75E" points="25.01,40.023 25.01,34.009 19.004,29.985 19.004,39.969 	"/>
</g>
<g>
	<path fill="#DBA250" d="M25.01,42.015v-8.006l-9.015,8.006H25.01z M75.021,34.009v8.006h8.981L75.021,34.009z"/>
</g>
<g>
	<path fill="#CBA950" d="M71.064,57.558c0-0.838-0.724-1.586-1.562-1.586s-1.649,0.748-1.649,1.586c0,0.065,0,0,0,0
		c-0.004,10.158-7.641,18.393-17.8,18.393c-10.16,0-17.996-8.233-18.001-18.393c0,0,0,0.065,0,0c0-0.838-0.71-1.586-1.549-1.586
		s-1.657,0.748-1.657,1.586c0,0.065,0,0,0,0c0,11.936,9.275,21.608,21.209,21.608C61.988,79.166,71.064,69.492,71.064,57.558
		C71.064,57.558,71.064,57.623,71.064,57.558z"/>
</g>
<g>
	<path fill="#D07C40" d="M30.472,52.988c-1.37,0-2.48,1.11-2.48,2.48c0,1.369,1.11,2.479,2.48,2.479c1.37,0,2.512-1.11,2.512-2.479
		C32.983,54.1,31.841,52.988,30.472,52.988z M69.473,52.988c-1.371,0-2.48,1.11-2.48,2.48c0,1.369,1.109,2.479,2.48,2.479
		c1.369,0,2.512-1.11,2.512-2.479C71.982,54.1,70.841,52.988,69.473,52.988z"/>
</g>
<g>
	<path fill="#FFFFFF" d="M71.064,56.558c0-0.838-0.724-1.586-1.562-1.586s-1.649,0.748-1.649,1.586c0,0.065,0,0,0,0
		c-0.004,10.158-7.641,18.393-17.8,18.393c-10.16,0-17.996-8.233-18.001-18.393c0,0,0,0.065,0,0c0-0.838-0.71-1.586-1.549-1.586
		s-1.657,0.748-1.657,1.586c0,0.065,0,0,0,0c0,11.936,9.275,21.608,21.209,21.608C61.988,78.166,71.064,68.492,71.064,56.558
		C71.064,56.558,71.064,56.623,71.064,56.558z"/>
</g>
</svg>
